<?xml version="1.0" encoding="UTF-8" standalone="no"?><svg xmlns="http://www.w3.org/2000/svg" xmlns:xlink="http://www.w3.org/1999/xlink" contentStyleType="text/css" height="763px" preserveAspectRatio="none" style="width:927px;height:763px;background:#FFFFFF;" version="1.1" viewBox="0 0 927 763" width="927px" zoomAndPan="magnify"><defs/><g><text fill="#000000" font-family="sans-serif" font-size="12" lengthAdjust="spacing" textLength="76" x="30" y="17.457">host-machine</text><text fill="#000000" font-family="sans-serif" font-size="12" lengthAdjust="spacing" textLength="20" x="86" y="146.3867">http</text><text fill="#000000" font-family="sans-serif" font-size="12" lengthAdjust="spacing" textLength="32" x="74" y="289.1523">amqp</text><text fill="#000000" font-family="sans-serif" font-size="12" lengthAdjust="spacing" textLength="45" x="61" y="404.2461">tty-socat</text><text fill="#000000" font-family="sans-serif" font-size="12" lengthAdjust="spacing" textLength="71" x="35" y="519.3398">tcp-minikube</text><text fill="#000000" font-family="sans-serif" font-size="12" lengthAdjust="spacing" textLength="101" x="5" y="634.4336">usb-host-machine</text><rect fill="#FFAAAA" height="299.1172" style="stroke:#FFAAAA;stroke-width:1.0;" width="147" x="579" y="182.8125"/><rect fill="#FFAAAA" height="299.1172" style="stroke:#FFAAAA;stroke-width:1.0;" width="163" x="746" y="182.8125"/><rect fill="#FF0000" height="5" style="stroke:#181818;stroke-width:1.0;" width="458" x="111" y="10.0469"/><rect fill="#98FB98" height="5" style="stroke:#181818;stroke-width:1.0;" width="808" x="111" y="138.9766"/><rect fill="#E2E2F0" height="5" style="stroke:#181818;stroke-width:1.0;" width="808" x="111" y="281.7422"/><rect fill="#E2E2F0" height="5" style="stroke:#181818;stroke-width:1.0;" width="350" x="569" y="396.8359"/><rect fill="#98FB98" height="5" style="stroke:#181818;stroke-width:1.0;" width="808" x="111" y="511.9297"/><rect fill="#FF0000" height="5" style="stroke:#181818;stroke-width:1.0;" width="175" x="111" y="627.0234"/><path d="M200.5,15.0469 L200.5,51.9648 " fill="none" style="stroke:#181818;stroke-width:1.0;"/><text fill="#000000" font-family="sans-serif" font-size="11" lengthAdjust="spacing" textLength="74" x="123" y="35.5068">http://demo.svc</text><path d="M200.5,97.0586 L200.5,138.9766 " fill="none" style="stroke:#181818;stroke-width:1.0;"/><path d="M429.5,15.0469 L429.5,56.9648 " fill="none" style="stroke:#181818;stroke-width:1.0;"/><text fill="#000000" font-family="sans-serif" font-size="11" lengthAdjust="spacing" textLength="128" x="298" y="38.0068">host.minikube.internal:/port</text><path d="M429.5,92.0586 L429.5,138.9766 " fill="none" style="stroke:#181818;stroke-width:1.0;"/><path d="M196.5,143.9766 L196.5,187.8125 " fill="none" style="stroke:#181818;stroke-width:1.0;"/><text fill="#000000" font-family="sans-serif" font-size="11" lengthAdjust="spacing" textLength="63" x="129" y="167.8955">/fota/hawkbit</text><path d="M425.5,143.9766 L425.5,187.8125 " fill="none" style="stroke:#181818;stroke-width:1.0;"/><path d="M650.5,143.9766 L650.5,187.8125 " fill="none" style="stroke:#181818;stroke-width:1.0;"/><text fill="#000000" font-family="sans-serif" font-size="11" lengthAdjust="spacing" textLength="60" x="587.5" y="167.8955">/wired/slcan</text><path d="M646,232.9063 L646,281.7422 " fill="none" style="stroke:#181818;stroke-width:1.0;"/><text fill="#000000" font-family="sans-serif" font-size="11" lengthAdjust="spacing" textLength="35" x="608" y="261.8252">Sender</text><path d="M659,232.9063 L659,278.7422 A4,4 0 0 1 659,290.7422 L659,396.8359 " fill="none" style="stroke:#181818;stroke-width:1.0;"/><text fill="#000000" font-family="sans-serif" font-size="11" lengthAdjust="spacing" textLength="64" x="591" y="376.9189">/dev/vmodem</text><path d="M825.5,143.9766 L825.5,187.8125 " fill="none" style="stroke:#181818;stroke-width:1.0;"/><path d="M821,232.9063 L821,281.7422 " fill="none" style="stroke:#181818;stroke-width:1.0;"/><text fill="#000000" font-family="sans-serif" font-size="11" lengthAdjust="spacing" textLength="43" x="775" y="261.8252">Receiver</text><path d="M834,232.9063 L834,278.7422 A4,4 0 0 1 834,290.7422 L834,396.8359 " fill="none" style="stroke:#181818;stroke-width:1.0;"/><text fill="#000000" font-family="sans-serif" font-size="11" lengthAdjust="spacing" textLength="64" x="766" y="376.9189">/dev/vmodem</text><path d="M200.5,286.7422 L200.5,316.7422 " fill="none" style="stroke:#181818;stroke-width:1.0;"/><path d="M650.5,401.8359 L650.5,431.8359 " fill="none" style="stroke:#181818;stroke-width:1.0;"/><path d="M650.5,476.9297 L650.5,511.9297 " fill="none" style="stroke:#181818;stroke-width:1.0;"/><path d="M825.5,401.8359 L825.5,431.8359 " fill="none" style="stroke:#181818;stroke-width:1.0;"/><path d="M825.5,476.9297 L825.5,511.9297 " fill="none" style="stroke:#181818;stroke-width:1.0;"/><path d="M200.5,516.9297 L200.5,546.9297 " fill="none" style="stroke:#181818;stroke-width:1.0;"/><path d="M200.5,592.0234 L200.5,627.0234 " fill="none" style="stroke:#181818;stroke-width:1.0;"/><path d="M196.5,632.0234 L196.5,668.9414 " fill="none" style="stroke:#181818;stroke-width:1.0;"/><text fill="#000000" font-family="sans-serif" font-size="11" lengthAdjust="spacing" textLength="65" x="125" y="652.4834">/dev/ttyACMx</text><polygon fill="#F1F1F1" points="130,61.9648,140,51.9648,267,51.9648,267,87.0586,257,97.0586,130,97.0586,130,61.9648" style="stroke:#181818;stroke-width:0.5;"/><line style="stroke:#181818;stroke-width:0.5;" x1="257" x2="267" y1="61.9648" y2="51.9648"/><line style="stroke:#181818;stroke-width:0.5;" x1="130" x2="257" y1="61.9648" y2="61.9648"/><line style="stroke:#181818;stroke-width:0.5;" x1="257" x2="257" y1="61.9648" y2="97.0586"/><text fill="#000000" font-family="sans-serif" font-size="12" lengthAdjust="spacing" textLength="97" x="145" y="84.4219">ingress-controller</text><rect fill="#F1F1F1" height="35.0938" style="stroke:#181818;stroke-width:0.5;" width="86" x="384.5" y="56.9648"/><text fill="#000000" font-family="sans-serif" font-size="12" lengthAdjust="spacing" textLength="66" x="394.5" y="79.4219">port-forward</text><polygon fill="#F1F1F1" points="133,197.8125,143,187.8125,264,187.8125,264,222.9063,254,232.9063,133,232.9063,133,197.8125" style="stroke:#181818;stroke-width:0.5;"/><line style="stroke:#181818;stroke-width:0.5;" x1="254" x2="264" y1="197.8125" y2="187.8125"/><line style="stroke:#181818;stroke-width:0.5;" x1="133" x2="254" y1="197.8125" y2="197.8125"/><line style="stroke:#181818;stroke-width:0.5;" x1="254" x2="254" y1="197.8125" y2="232.9063"/><text fill="#000000" font-family="sans-serif" font-size="12" lengthAdjust="spacing" textLength="91" x="148" y="220.2695">hawkbit-frontend</text><polygon fill="#F1F1F1" points="361,197.8125,371,187.8125,494,187.8125,494,222.9063,484,232.9063,361,232.9063,361,197.8125" style="stroke:#181818;stroke-width:0.5;"/><line style="stroke:#181818;stroke-width:0.5;" x1="484" x2="494" y1="197.8125" y2="187.8125"/><line style="stroke:#181818;stroke-width:0.5;" x1="361" x2="484" y1="197.8125" y2="197.8125"/><line style="stroke:#181818;stroke-width:0.5;" x1="484" x2="484" y1="197.8125" y2="232.9063"/><text fill="#000000" font-family="sans-serif" font-size="12" lengthAdjust="spacing" textLength="93" x="376" y="220.2695">hawkbit-backend</text><polygon fill="#F1F1F1" points="606.5,197.8125,616.5,187.8125,698.5,187.8125,698.5,222.9063,688.5,232.9063,606.5,232.9063,606.5,197.8125" style="stroke:#181818;stroke-width:0.5;"/><line style="stroke:#181818;stroke-width:0.5;" x1="688.5" x2="698.5" y1="197.8125" y2="187.8125"/><line style="stroke:#181818;stroke-width:0.5;" x1="606.5" x2="688.5" y1="197.8125" y2="197.8125"/><line style="stroke:#181818;stroke-width:0.5;" x1="688.5" x2="688.5" y1="197.8125" y2="232.9063"/><text fill="#000000" font-family="sans-serif" font-size="12" lengthAdjust="spacing" textLength="52" x="621.5" y="220.2695">slcan-svc</text><polygon fill="#F1F1F1" points="773.5,197.8125,783.5,187.8125,881.5,187.8125,881.5,222.9063,871.5,232.9063,773.5,232.9063,773.5,197.8125" style="stroke:#181818;stroke-width:0.5;"/><line style="stroke:#181818;stroke-width:0.5;" x1="871.5" x2="881.5" y1="197.8125" y2="187.8125"/><line style="stroke:#181818;stroke-width:0.5;" x1="773.5" x2="871.5" y1="197.8125" y2="197.8125"/><line style="stroke:#181818;stroke-width:0.5;" x1="871.5" x2="871.5" y1="197.8125" y2="232.9063"/><text fill="#000000" font-family="sans-serif" font-size="12" lengthAdjust="spacing" textLength="68" x="788.5" y="220.2695">mcumgr-svc</text><polygon fill="#F1F1F1" points="152,326.7422,162,316.7422,245,316.7422,245,351.8359,235,361.8359,152,361.8359,152,326.7422" style="stroke:#181818;stroke-width:0.5;"/><line style="stroke:#181818;stroke-width:0.5;" x1="235" x2="245" y1="326.7422" y2="316.7422"/><line style="stroke:#181818;stroke-width:0.5;" x1="152" x2="235" y1="326.7422" y2="326.7422"/><line style="stroke:#181818;stroke-width:0.5;" x1="235" x2="235" y1="326.7422" y2="361.8359"/><text fill="#000000" font-family="sans-serif" font-size="12" lengthAdjust="spacing" textLength="53" x="167" y="349.1992">rabbit-mq</text><polygon fill="#F1F1F1" points="584,441.8359,594,431.8359,721,431.8359,721,466.9297,711,476.9297,584,476.9297,584,441.8359" style="stroke:#181818;stroke-width:0.5;"/><line style="stroke:#181818;stroke-width:0.5;" x1="711" x2="721" y1="441.8359" y2="431.8359"/><line style="stroke:#181818;stroke-width:0.5;" x1="584" x2="711" y1="441.8359" y2="441.8359"/><line style="stroke:#181818;stroke-width:0.5;" x1="711" x2="711" y1="441.8359" y2="476.9297"/><text fill="#000000" font-family="sans-serif" font-size="12" lengthAdjust="spacing" textLength="97" x="599" y="464.293">slcan-socat-client</text><polygon fill="#F1F1F1" points="751,441.8359,761,431.8359,904,431.8359,904,466.9297,894,476.9297,751,476.9297,751,441.8359" style="stroke:#181818;stroke-width:0.5;"/><line style="stroke:#181818;stroke-width:0.5;" x1="894" x2="904" y1="441.8359" y2="431.8359"/><line style="stroke:#181818;stroke-width:0.5;" x1="751" x2="894" y1="441.8359" y2="441.8359"/><line style="stroke:#181818;stroke-width:0.5;" x1="894" x2="894" y1="441.8359" y2="476.9297"/><text fill="#000000" font-family="sans-serif" font-size="12" lengthAdjust="spacing" textLength="113" x="766" y="464.293">mcumgr-socat-client</text><polygon fill="#F1F1F1" points="144.5,556.9297,154.5,546.9297,252.5,546.9297,252.5,582.0234,242.5,592.0234,144.5,592.0234,144.5,556.9297" style="stroke:#181818;stroke-width:0.5;"/><line style="stroke:#181818;stroke-width:0.5;" x1="242.5" x2="252.5" y1="556.9297" y2="546.9297"/><line style="stroke:#181818;stroke-width:0.5;" x1="144.5" x2="242.5" y1="556.9297" y2="556.9297"/><line style="stroke:#181818;stroke-width:0.5;" x1="242.5" x2="242.5" y1="556.9297" y2="592.0234"/><text fill="#000000" font-family="sans-serif" font-size="12" lengthAdjust="spacing" textLength="68" x="159.5" y="579.3867">socat-server</text><polygon fill="#F1F1F1" points="152,678.9414,162,668.9414,245,668.9414,245,704.0352,235,714.0352,152,714.0352,152,678.9414" style="stroke:#181818;stroke-width:0.5;"/><line style="stroke:#181818;stroke-width:0.5;" x1="235" x2="245" y1="678.9414" y2="668.9414"/><line style="stroke:#181818;stroke-width:0.5;" x1="152" x2="235" y1="678.9414" y2="678.9414"/><line style="stroke:#181818;stroke-width:0.5;" x1="235" x2="235" y1="678.9414" y2="714.0352"/><text fill="#000000" font-family="sans-serif" font-size="12" lengthAdjust="spacing" textLength="53" x="167" y="701.3984">slcan-dev</text><!--MD5=[c4b912329cb6c837834b62aa49325db7]
@startuml demo-svc
nwdiag {

  group slcan {
    color = "#FFAAAA";
    slcan-svc
    slcan-socat-client
  }
  group mcumgr {
    color = "#FFAAAA";
    mcumgr-svc
    mcumgr-socat-client
  }
  network host-machine {
    color = "red"
    ingress-controller [address = "http://demo.svc                           ", shape = node]
    port-forward [address = "host.minikube.internal:/port                                             "]
  }
  network http {
    color = "palegreen"
    hawkbit-frontend [address = "/fota/hawkbit                        ", shape = node]
    hawkbit-backend [address = """, shape = node]
    slcan-svc [address = "/wired/slcan                      "]
    mcumgr-svc
    ingress-controller
    port-forward
  }
  network amqp {
    slcan-svc [address = "Sender ", shape = node]
    mcumgr-svc [address = "Receiver ", shape = node]
    rabbit-mq [shape = node ]
  }
  network tty-socat {
    slcan-svc [address = "/dev/vmodem                        "]
    mcumgr-svc [address = "/dev/vmodem                        "]
    slcan-socat-client [, shape = node]
    mcumgr-socat-client [, shape = node]
  }
  network tcp-minikube {
    color = "palegreen"
    slcan-socat-client
    mcumgr-socat-client
    socat-server [, shape = node]
  }
  network usb-host-machine {
    color = "red"
    socat-server
    slcan-dev [address = "/dev/ttyACMx                          ", shape = node]
  }
}
@enduml

PlantUML version 1.2022.7(Tue Aug 23 02:01:30 JST 2022)
(GPL source distribution)
Java Runtime: Java(TM) SE Runtime Environment
JVM: Java HotSpot(TM) 64-Bit Server VM
Default Encoding: Cp1252
Language: en
Country: US
--></g></svg>